<?xml version="1.0" encoding="UTF-8"?>
<svg width="700pt" height="700pt" version="1.1" viewBox="0 0 700 700" xmlns="http://www.w3.org/2000/svg" xmlns:xlink="http://www.w3.org/1999/xlink">
 <defs>
  <symbol id="t" overflow="visible">
   <path d="m14.656-0.875c-0.76172 0.39844-1.5547 0.69531-2.375 0.89062-0.8125 0.19531-1.6641 0.29688-2.5469 0.29688-2.6562 0-4.7617-0.73828-6.3125-2.2188-1.5547-1.4883-2.3281-3.5039-2.3281-6.0469 0-2.5508 0.77344-4.5664 2.3281-6.0469 1.5508-1.4883 3.6562-2.2344 6.3125-2.2344 0.88281 0 1.7344 0.10156 2.5469 0.29688 0.82031 0.19922 1.6133 0.49609 2.375 0.89062v3.2969c-0.76172-0.51953-1.5117-0.89844-2.25-1.1406-0.74219-0.23828-1.5234-0.35938-2.3438-0.35938-1.4688 0-2.625 0.46875-3.4688 1.4062-0.83594 0.9375-1.25 2.2344-1.25 3.8906 0 1.6484 0.41406 2.9375 1.25 3.875 0.84375 0.9375 2 1.4062 3.4688 1.4062 0.82031 0 1.6016-0.11719 2.3438-0.35938 0.73828-0.23828 1.4883-0.61719 2.25-1.1406z"/>
  </symbol>
  <symbol id="b" overflow="visible">
   <path d="m10.719-8.7031c-0.33594-0.15625-0.66797-0.26953-1-0.34375-0.32422-0.082031-0.65625-0.125-1-0.125-0.98047 0-1.7344 0.32031-2.2656 0.95312-0.53125 0.625-0.79688 1.5273-0.79688 2.7031v5.5156h-3.8125v-11.969h3.8125v1.9688c0.48828-0.78125 1.0508-1.3477 1.6875-1.7031 0.64453-0.36328 1.4102-0.54688 2.2969-0.54688 0.13281 0 0.27344 0.007812 0.42188 0.015625 0.14453 0.011719 0.36328 0.03125 0.65625 0.0625z"/>
  </symbol>
  <symbol id="a" overflow="visible">
   <path d="m13.781-6.0156v1.0938h-8.9375c0.09375 0.89844 0.41406 1.5703 0.96875 2.0156 0.55078 0.44922 1.3281 0.67188 2.3281 0.67188 0.80078 0 1.625-0.11719 2.4688-0.35938 0.84375-0.23828 1.7109-0.59766 2.6094-1.0781v2.9531c-0.90625 0.33594-1.8125 0.58984-2.7188 0.76562s-1.8125 0.26562-2.7188 0.26562c-2.1562 0-3.8398-0.54688-5.0469-1.6406-1.1992-1.1016-1.7969-2.6484-1.7969-4.6406 0-1.9453 0.58594-3.4766 1.7656-4.5938 1.1758-1.125 2.8008-1.6875 4.875-1.6875 1.875 0 3.375 0.57031 4.5 1.7031 1.1328 1.125 1.7031 2.6367 1.7031 4.5312zm-3.9375-1.2656c0-0.72656-0.21484-1.3125-0.64062-1.75-0.41797-0.44531-0.96875-0.67188-1.6562-0.67188-0.74219 0-1.3438 0.21094-1.8125 0.625-0.46094 0.41797-0.74609 1.0156-0.85938 1.7969z"/>
  </symbol>
  <symbol id="k" overflow="visible">
   <path d="m7.2031-5.3906c-0.80469 0-1.4062 0.13672-1.8125 0.40625-0.39844 0.27344-0.59375 0.67188-0.59375 1.2031 0 0.48047 0.16016 0.85938 0.48438 1.1406 0.32031 0.27344 0.77344 0.40625 1.3594 0.40625 0.71875 0 1.3203-0.25391 1.8125-0.76562 0.48828-0.51953 0.73438-1.1719 0.73438-1.9531v-0.4375zm5.8438-1.4375v6.8281h-3.8594v-1.7656c-0.51172 0.71875-1.0898 1.2461-1.7344 1.5781-0.63672 0.33203-1.418 0.5-2.3438 0.5-1.2422 0-2.2461-0.35938-3.0156-1.0781-0.77344-0.72656-1.1562-1.6719-1.1562-2.8281 0-1.3945 0.47656-2.4219 1.4375-3.0781 0.96875-0.65625 2.4883-0.98438 4.5625-0.98438h2.25v-0.29688c0-0.60156-0.24219-1.0469-0.71875-1.3281-0.48047-0.28125-1.2266-0.42188-2.2344-0.42188-0.8125 0-1.5742 0.085937-2.2812 0.25-0.71094 0.15625-1.3672 0.40234-1.9688 0.73438v-2.9219c0.82031-0.19531 1.6445-0.34766 2.4688-0.45312 0.82031-0.10156 1.6484-0.15625 2.4844-0.15625 2.1562 0 3.7109 0.42969 4.6719 1.2812 0.95703 0.84375 1.4375 2.2266 1.4375 4.1406z"/>
  </symbol>
  <symbol id="d" overflow="visible">
   <path d="m6.0156-15.359v3.3906h3.9375v2.7344h-3.9375v5.0781c0 0.55469 0.10938 0.92969 0.32812 1.125 0.21875 0.19922 0.65625 0.29688 1.3125 0.29688h1.9688v2.7344h-3.2812c-1.5117 0-2.5859-0.3125-3.2188-0.9375-0.625-0.63281-0.9375-1.707-0.9375-3.2188v-5.0781h-1.9062v-2.7344h1.9062v-3.3906z"/>
  </symbol>
  <symbol id="j" overflow="visible">
   <path d="m9.9688-10.219v-6.4062h3.8594v16.625h-3.8594v-1.7344c-0.52344 0.71094-1.1016 1.2305-1.7344 1.5625-0.63672 0.32031-1.3711 0.48438-2.2031 0.48438-1.4688 0-2.6797-0.58203-3.625-1.75-0.94922-1.1758-1.4219-2.6875-1.4219-4.5312s0.47266-3.3477 1.4219-4.5156c0.94531-1.1758 2.1562-1.7656 3.625-1.7656 0.83203 0 1.5664 0.16797 2.2031 0.5 0.63281 0.32422 1.2109 0.83594 1.7344 1.5312zm-2.5156 7.75c0.82031 0 1.4453-0.29688 1.875-0.89062 0.42578-0.60156 0.64062-1.4727 0.64062-2.6094 0-1.1445-0.21484-2.0156-0.64062-2.6094-0.42969-0.59375-1.0547-0.89062-1.875-0.89062-0.8125 0-1.4336 0.29688-1.8594 0.89062-0.42969 0.59375-0.64062 1.4648-0.64062 2.6094 0 1.1367 0.21094 2.0078 0.64062 2.6094 0.42578 0.59375 1.0469 0.89062 1.8594 0.89062z"/>
  </symbol>
  <symbol id="i" overflow="visible">
   <path d="m8.2031-2.4688c0.82031 0 1.4453-0.29688 1.875-0.89062 0.42578-0.60156 0.64062-1.4727 0.64062-2.6094 0-1.1445-0.21484-2.0156-0.64062-2.6094-0.42969-0.59375-1.0547-0.89062-1.875-0.89062-0.82422 0-1.4531 0.30469-1.8906 0.90625-0.4375 0.59375-0.65625 1.4609-0.65625 2.5938 0 1.1367 0.21875 2.0078 0.65625 2.6094 0.4375 0.59375 1.0664 0.89062 1.8906 0.89062zm-2.5469-7.75c0.53125-0.69531 1.1133-1.207 1.75-1.5312 0.64453-0.33203 1.3828-0.5 2.2188-0.5 1.4688 0 2.6758 0.58984 3.625 1.7656 0.94531 1.168 1.4219 2.6719 1.4219 4.5156s-0.47656 3.3555-1.4219 4.5312c-0.94922 1.168-2.1562 1.75-3.625 1.75-0.83594 0-1.5742-0.16797-2.2188-0.5-0.63672-0.33203-1.2188-0.84766-1.75-1.5469v1.7344h-3.8125v-16.625h3.8125z"/>
  </symbol>
  <symbol id="e" overflow="visible">
   <path d="m0.26562-11.969h3.8281l3.2188 8.125 2.7344-8.125h3.8125l-5.0312 13.094c-0.5 1.332-1.0898 2.2656-1.7656 2.7969-0.66797 0.53125-1.5547 0.79688-2.6562 0.79688h-2.2188v-2.5h1.2031c0.64453 0 1.1133-0.10547 1.4062-0.3125 0.30078-0.21094 0.53125-0.57812 0.6875-1.1094l0.10938-0.34375z"/>
  </symbol>
  <symbol id="h" overflow="visible">
   <path d="m0.32812-11.969h3.8281l2.9844 8.2656 2.9688-8.2656h3.8281l-4.7031 11.969h-4.2031z"/>
  </symbol>
  <symbol id="s" overflow="visible">
   <path d="m5.6562-1.7344v6.2812h-3.8125v-16.516h3.8125v1.75c0.53125-0.69531 1.1133-1.207 1.75-1.5312 0.64453-0.33203 1.3828-0.5 2.2188-0.5 1.4688 0 2.6758 0.58984 3.625 1.7656 0.94531 1.168 1.4219 2.6719 1.4219 4.5156s-0.47656 3.3555-1.4219 4.5312c-0.94922 1.168-2.1562 1.75-3.625 1.75-0.83594 0-1.5742-0.16797-2.2188-0.5-0.63672-0.33203-1.2188-0.84766-1.75-1.5469zm2.5469-7.7344c-0.82422 0-1.4531 0.30469-1.8906 0.90625-0.4375 0.59375-0.65625 1.4609-0.65625 2.5938 0 1.1367 0.21875 2.0078 0.65625 2.6094 0.4375 0.59375 1.0664 0.89062 1.8906 0.89062 0.82031 0 1.4453-0.29688 1.875-0.89062 0.42578-0.60156 0.64062-1.4727 0.64062-2.6094 0-1.1445-0.21484-2.0156-0.64062-2.6094-0.42969-0.59375-1.0547-0.89062-1.875-0.89062z"/>
  </symbol>
  <symbol id="c" overflow="visible">
   <path d="m7.5312-9.5156c-0.84375 0-1.4922 0.30859-1.9375 0.92188-0.44922 0.60547-0.67188 1.4805-0.67188 2.625 0 1.1484 0.22266 2.0273 0.67188 2.6406 0.44531 0.60547 1.0938 0.90625 1.9375 0.90625 0.83203 0 1.4688-0.30078 1.9062-0.90625 0.44531-0.61328 0.67188-1.4922 0.67188-2.6406 0-1.1445-0.22656-2.0195-0.67188-2.625-0.4375-0.61328-1.0742-0.92188-1.9062-0.92188zm0-2.7344c2.0508 0 3.6562 0.55859 4.8125 1.6719 1.1641 1.1055 1.75 2.6406 1.75 4.6094s-0.58594 3.5117-1.75 4.625c-1.1562 1.1055-2.7617 1.6562-4.8125 1.6562-2.0625 0-3.6797-0.55078-4.8438-1.6562-1.168-1.1133-1.75-2.6562-1.75-4.625s0.58203-3.5039 1.75-4.6094c1.1641-1.1133 2.7812-1.6719 4.8438-1.6719z"/>
  </symbol>
  <symbol id="g" overflow="visible">
   <path d="m13.859-7.2812v7.2812h-3.8438v-5.5781c0-1.0312-0.027344-1.7383-0.078125-2.125-0.042969-0.39453-0.12109-0.6875-0.23438-0.875-0.14844-0.25-0.35156-0.44141-0.60938-0.57812-0.25-0.14453-0.54297-0.21875-0.875-0.21875-0.79297 0-1.418 0.3125-1.875 0.9375-0.46094 0.61719-0.6875 1.4648-0.6875 2.5469v5.8906h-3.8125v-11.969h3.8125v1.75c0.58203-0.69531 1.1953-1.207 1.8438-1.5312 0.64453-0.33203 1.3594-0.5 2.1406-0.5 1.3828 0 2.4297 0.42969 3.1406 1.2812 0.71875 0.84375 1.0781 2.0742 1.0781 3.6875z"/>
  </symbol>
  <symbol id="f" overflow="visible">
   <path d="m12.922-9.9688c0.48828-0.75 1.0625-1.3164 1.7188-1.7031 0.66406-0.38281 1.3984-0.57812 2.2031-0.57812 1.375 0 2.4219 0.42969 3.1406 1.2812 0.71875 0.84375 1.0781 2.0742 1.0781 3.6875v7.2812h-3.8438v-6.2344c0.007812-0.09375 0.015625-0.1875 0.015625-0.28125v-0.4375c0-0.84375-0.125-1.457-0.375-1.8438-0.25-0.38281-0.65234-0.57812-1.2031-0.57812-0.73047 0-1.293 0.30469-1.6875 0.90625-0.38672 0.59375-0.58984 1.4609-0.60938 2.5938v5.875h-3.8438v-6.2344c0-1.3203-0.11719-2.1758-0.34375-2.5625-0.23047-0.38281-0.63672-0.57812-1.2188-0.57812-0.73047 0-1.2969 0.30469-1.7031 0.90625-0.39844 0.60547-0.59375 1.4648-0.59375 2.5781v5.8906h-3.8438v-11.969h3.8438v1.75c0.46875-0.66406 1.0039-1.1719 1.6094-1.5156 0.61328-0.34375 1.2891-0.51562 2.0312-0.51562 0.82031 0 1.5508 0.19922 2.1875 0.59375 0.63281 0.39844 1.1133 0.96094 1.4375 1.6875z"/>
  </symbol>
  <symbol id="r" overflow="visible">
   <path d="m9.7031-16.625v2.5156h-2.1094c-0.54297 0-0.92188 0.10156-1.1406 0.29688-0.21094 0.19922-0.3125 0.53906-0.3125 1.0156v0.82812h3.2656v2.7344h-3.2656v9.2344h-3.8281v-9.2344h-1.8906v-2.7344h1.8906v-0.82812c0-1.3008 0.36328-2.2656 1.0938-2.8906 0.72656-0.625 1.8516-0.9375 3.375-0.9375z"/>
  </symbol>
  <symbol id="q" overflow="visible">
   <path d="m13.859-7.2812v7.2812h-3.8438v-5.5469c0-1.0508-0.027344-1.7695-0.078125-2.1562-0.042969-0.39453-0.12109-0.6875-0.23438-0.875-0.14844-0.25-0.35156-0.44141-0.60938-0.57812-0.25-0.14453-0.54297-0.21875-0.875-0.21875-0.79297 0-1.418 0.3125-1.875 0.9375-0.46094 0.61719-0.6875 1.4648-0.6875 2.5469v5.8906h-3.8125v-16.625h3.8125v6.4062c0.58203-0.69531 1.1953-1.207 1.8438-1.5312 0.64453-0.33203 1.3594-0.5 2.1406-0.5 1.3828 0 2.4297 0.42969 3.1406 1.2812 0.71875 0.84375 1.0781 2.0742 1.0781 3.6875z"/>
  </symbol>
  <symbol id="p" overflow="visible">
   <path d="m2.0156-15.953h4.5781l5.8125 10.938v-10.938h3.8906v15.953h-4.5938l-5.7969-10.938v10.938h-3.8906z"/>
  </symbol>
  <symbol id="o" overflow="visible">
   <path d="m1.7031-4.6562v-7.3125h3.8438v1.2031c0 0.64844-0.007813 1.4609-0.015625 2.4375v1.9688c0 0.96094 0.023438 1.6523 0.078125 2.0781 0.050781 0.41797 0.13281 0.72656 0.25 0.92188 0.15625 0.25 0.35938 0.44531 0.60938 0.57812 0.25781 0.13672 0.55078 0.20312 0.875 0.20312 0.80078 0 1.4258-0.30469 1.875-0.92188 0.45703-0.61328 0.6875-1.4688 0.6875-2.5625v-5.9062h3.8281v11.969h-3.8281v-1.7344c-0.57422 0.69922-1.1836 1.2148-1.8281 1.5469-0.64844 0.33203-1.3555 0.5-2.125 0.5-1.3867 0-2.4453-0.42188-3.1719-1.2656-0.71875-0.85156-1.0781-2.0859-1.0781-3.7031z"/>
  </symbol>
  <symbol id="n" overflow="visible">
   <path d="m2.0156-15.953h6.8125c2.0312 0 3.5859 0.45312 4.6719 1.3594 1.0938 0.89844 1.6406 2.1797 1.6406 3.8438 0 1.6797-0.54688 2.9688-1.6406 3.875-1.0859 0.89844-2.6406 1.3438-4.6719 1.3438h-2.7031v5.5312h-4.1094zm4.1094 2.9844v4.4531h2.2656c0.80078 0 1.4141-0.19141 1.8438-0.57812 0.4375-0.38281 0.65625-0.9375 0.65625-1.6562 0-0.70703-0.21875-1.2539-0.65625-1.6406-0.42969-0.38281-1.043-0.57812-1.8438-0.57812z"/>
  </symbol>
  <symbol id="m" overflow="visible">
   <path d="m1.8438-11.969h3.8125v11.75c0 1.6016-0.38672 2.8281-1.1562 3.6719-0.76172 0.84375-1.8711 1.2656-3.3281 1.2656h-1.8906v-2.5h0.65625c0.72656 0 1.2266-0.16797 1.5-0.5 0.26953-0.32422 0.40625-0.96875 0.40625-1.9375zm0-4.6562h3.8125v3.125h-3.8125z"/>
  </symbol>
  <symbol id="l" overflow="visible">
   <path d="m11.5-11.594v3.125c-0.52344-0.35156-1.043-0.61328-1.5625-0.78125-0.52344-0.17578-1.0625-0.26562-1.625-0.26562-1.0742 0-1.9062 0.3125-2.5 0.9375s-0.89062 1.4961-0.89062 2.6094c0 1.1172 0.29688 1.9844 0.89062 2.6094s1.4258 0.9375 2.5 0.9375c0.59375 0 1.1562-0.085937 1.6875-0.26562 0.53906-0.17578 1.0391-0.44141 1.5-0.79688v3.125c-0.59375 0.23047-1.1992 0.39453-1.8125 0.5-0.61719 0.11328-1.2344 0.17188-1.8594 0.17188-2.1562 0-3.8438-0.55078-5.0625-1.6562-1.2188-1.1133-1.8281-2.6562-1.8281-4.625s0.60938-3.5039 1.8281-4.6094c1.2188-1.1133 2.9062-1.6719 5.0625-1.6719 0.625 0 1.2383 0.058594 1.8438 0.17188 0.61328 0.10547 1.2227 0.26562 1.8281 0.48438z"/>
  </symbol>
 </defs>
 <g>
  <path d="m245.72 159.39c-0.33203-1.0977-1.0625-2-2.0547-2.5273l-45.332-24.293c-0.61328-0.32812-1.2812-0.49609-1.9805-0.49609-1.5977 0-3.0508 0.85938-3.7891 2.2344l-72.305 134.88c-1.0938 2.0391-0.29297 4.6875 1.7461 5.7812l45.332 24.305c0.61328 0.32812 1.2812 0.49609 1.9805 0.49609 1.5977 0 3.0508-0.85938 3.793-2.2383l72.301-134.89c0.53125-1.0117 0.64062-2.1562 0.30859-3.25z"/>
  <path d="m240.69 326.27c-1.9961-1.9922-4.6602-3.0938-7.5-3.0938s-5.5117 1.1016-7.5195 3.1094l-3.5586 3.5586c-0.11719 0.35938-0.25391 0.71875-0.44141 1.0586-0.81641 1.5195-2.1641 2.5469-3.6797 3.0625l-6.8594 6.8555c-4.1406 4.1445-4.1445 10.887-0.003906 15.023 4.0156 4.0117 11.008 4.0117 15.023 0l14.547-14.543c4.1328-4.1367 4.1289-10.879-0.007813-15.031z"/>
  <path d="m307.86 366.96c0-2.832-1.1016-5.4961-3.1094-7.4961-2.0117-2.0156-4.6797-3.125-7.5195-3.125-2.832 0-5.4961 1.1016-7.4961 3.1055l-10.27 10.25-4.3125 4.3125c-4.1055 4.1406-4.0977 10.855 0.035156 14.992 4.0117 4.0078 11.004 4.0078 15.02 0l5.2969-5.2969c0.007813-0.007813 0.011719-0.015625 0.023438-0.027344l4.0859-4.082 5.1328-5.1289c2.0117-1.9961 3.1133-4.6641 3.1133-7.5039z"/>
  <path d="m284.25 346.36c4.1406-4.1445 4.1406-10.879 0-15.02-2.0117-2.0117-4.6797-3.1211-7.5156-3.1211-2.832 0-5.4961 1.1055-7.5039 3.1133l-26.691 26.688c-2.0078 2.0117-3.1211 4.6914-3.1133 7.5391 0 2.832 1.1016 5.4805 3.0977 7.4766 4.0352 4.0312 11.016 4.0234 15.035 0.007813l8.3086-8.3086c0.011718-0.011719 0.023437-0.03125 0.035156-0.042969l6.668-6.6602z"/>
  <path d="m579.75 269.19-72.305-134.88c-0.73828-1.375-2.1914-2.2305-3.7891-2.2305-0.69922 0-1.3711 0.16797-1.9961 0.5l-45.32 24.289c-0.99219 0.53516-1.7227 1.4297-2.0508 2.5273-0.33203 1.0977-0.22266 2.25 0.30469 3.2383l72.305 134.91c1.0625 1.9805 3.7461 2.8281 5.7812 1.7344l45.328-24.297c2.0703-1.1133 2.8555-3.7109 1.7422-5.7852z"/>
  <path d="m319.27 382.91c-2.8359 0-5.5078 1.1016-7.5156 3.1094l-3.9766 3.9727-2.9844 2.9805c-2 2.0039-3.1016 4.6602-3.1016 7.4883 0 2.8359 1.1016 5.5078 3.1094 7.5156 2 1.9961 4.668 3.0977 7.5039 3.0977 2.8359 0 5.5039-1.1016 7.5117-3.1094l6.9648-6.9297c4.1133-4.1328 4.1172-10.891-0.023438-15.031-1.9883-1.9922-4.6523-3.0938-7.4883-3.0938z"/>
  <path d="m433.61 186.06c-0.98828 0.33203-2.0469 0.4375-3.0742 0.28125l-77.172-11.332-61.441 46.879v62.195c6.6211 1.3438 19.211 1.5781 25.984-13.438l7.082-29.195c0.28516-1.1875 0.90234-2.2656 1.7656-3.125l9.7109-9.5859c0.023437-0.023438 0.046874-0.046876 0.070312-0.070313l3.7461-3.7031c2.5781-2.5469 6.7344-2.5195 9.2812 0.0625 2.0508 2.0781 2.3477 5.1367 1.0781 7.5938l124.77 92.371c0.28906 0.21484 0.50781 0.48828 0.78906 0.71875 17.414-8.8203 21.824-24.184 22.012-24.871 0.5625-2.0664 2.1133-3.7656 4.1328-4.4844l7.582-2.707-60.551-112.98z"/>
  <path d="m467.57 335.52-126.06-93.324-4.207 4.1602-6.7812 27.953c-0.085938 0.36328-0.20703 0.72266-0.35547 1.0625-7.5625 17.461-21.102 22.426-32.637 22.426-5.6641 0-10.844-1.1953-14.605-2.6992-2.4922-0.99609-4.125-3.4062-4.125-6.0938v-70.363c0-2.0469 0.95312-3.9766 2.582-5.2148l27.117-20.688h-40.277c-1.3477 0-2.6602-0.41406-3.7656-1.1875l-14.289-10.012-59.375 110.77 9.9023 3.0508c2.1484 0.66016 3.8047 2.375 4.3984 4.5469 1.0547 3.8164 4.5508 13.02 9.75 18.652l1.5547-1.5547c4.4883-4.4844 10.457-6.9531 16.801-6.9531 6.3359 0 12.293 2.4648 16.777 6.9336 2.7188 2.7266 4.5352 5.9688 5.6562 9.3945l4.3125-4.3125c4.4805-4.4883 10.449-6.9648 16.785-6.9648 6.3438 0 12.309 2.4766 16.797 6.9688 5.8086 5.8086 7.9609 13.902 6.4766 21.422 5.2852 0.61719 10.203 2.8711 14.027 6.6953 4.4805 4.4727 6.9531 10.43 6.957 16.773 0 1.0117-0.16797 1.9844-0.28906 2.9766 5.793 0.34375 11.215 2.6641 15.352 6.7969 8.7109 8.7227 9.1094 22.555 1.4141 31.887l22.449 16.879c5.3555 4.0156 12.988 2.9375 17.02-2.4141 1.9531-2.5898 2.7773-5.793 2.3242-9.0078-0.45312-3.2188-2.1367-6.0664-4.7344-8.0195-0.45313-0.34375-0.83203-0.75-1.1719-1.1758l-49.469-38.641c-2.8555-2.2305-3.3633-6.3555-1.1328-9.2109 2.2305-2.8516 6.3555-3.3672 9.2109-1.1328l59.281 46.297c2.4922 1.8828 5.6992 2.6875 8.9023 2.2461 3.2148-0.46094 6.0664-2.1445 8.0234-4.7383 1.9414-2.582 2.7656-5.7734 2.3086-8.9922-0.45312-3.2188-2.1406-6.0664-4.7383-8.0234-0.43359-0.32422-0.79297-0.69922-1.1211-1.0977l-62.785-48.621c-2.8672-2.2188-3.3906-6.3398-1.1719-9.2031 2.2188-2.8672 6.3438-3.3867 9.2031-1.1719l74.125 57.391c2.5195 1.8945 5.7188 2.7109 8.9336 2.2617 3.2109-0.45312 6.0547-2.1367 8-4.7305 1.9609-2.5977 2.7812-5.7969 2.3281-9.0078-0.42969-3.0312-1.9805-5.7109-4.3398-7.6445l-81.184-60.051c-2.9141-2.1562-3.5312-6.2656-1.375-9.1797 2.1602-2.9141 6.2656-3.5234 9.1797-1.375l80.359 59.438c0.17188 0.10547 0.35156 0.18359 0.51172 0.30469 0.14453 0.10938 0.25391 0.25 0.39453 0.36328l6.1172 4.5234c2.6406 1.9844 5.8242 2.8125 9.0508 2.3633 3.2109-0.45312 6.0547-2.1367 8.0078-4.7305 1.957-2.5977 2.7812-5.8047 2.3242-9.0273-0.45703-3.1992-2.1367-6.0352-4.7227-7.9766z"/>
 </g>
</svg>
