<?xml version="1.0" encoding="UTF-8"?>
<svg width="700pt" height="700pt" version="1.1" viewBox="0 0 700 700" xmlns="http://www.w3.org/2000/svg">
 <g>
  <path d="m370.16 223.89v-14.613h-40.32v14.617c6.4961-1.2891 13.215-2.0742 20.16-2.0742 6.8867 0 13.609 0.78516 20.16 2.0703z"/>
  <path d="m168.39 254.8h48.887v37.688h-48.887z"/>
  <path d="m390.27 351.96c0 6.2461-5.0664 11.312-11.312 11.312-6.25 0-11.312-5.0664-11.312-11.312 0-6.25 5.0625-11.312 11.312-11.312 6.2461 0 11.312 5.0625 11.312 11.312"/>
  <path d="m251.95 357.84 9.6875 8.5117c-7-13.551-10.977-28.953-10.977-45.246 0-16.297 3.9219-31.586 10.922-45.191l-9.6328 8.6211c-0.39453 0.33594-0.89844 0.50391-1.3438 0.50391-0.67187 0-1.1758-0.28125-1.625-0.72656-0.78516-0.83984-0.73047-2.1836 0.11328-3.0234l6.6094-5.8242h-34.219v91.391h34.215l-6.6055-5.8789c-0.84375-0.73047-0.89844-2.1289-0.16797-2.9688 0.83984-0.89453 2.125-0.95312 3.0234-0.16797z"/>
  <path d="m306.43 290.7h87.137v24.754h-87.137z"/>
  <path d="m168.39 296.69h48.887v42.504h-48.887z"/>
  <path d="m168.39 343.45h48.887v44.07h-48.887z"/>
  <path d="m360.36 182h-20.832v23.016h20.832z"/>
  <path d="m482.66 343.45h48.945v44.07h-48.945z"/>
  <path d="m350 240.63c-44.406 0-80.527 36.121-80.527 80.527 0 44.465 36.176 80.527 80.527 80.527s80.527-36.062 80.527-80.527-36.176-80.527-80.527-80.527zm11.816 26.824 10.582-0.28125h0.054687c1.1758 0 2.1289 0.95312 2.1289 2.1289 0 1.1758-0.89453 2.1289-2.0703 2.1289l-10.641 0.28125-0.054688-0.003906c-1.1758 0-2.0703-0.95313-2.1289-2.0703 0-1.1758 0.89844-2.1289 2.1289-2.1836zm-34.328 0.16797 10.586-0.28125h0.054687c1.1758 0 2.1289 0.95312 2.1289 2.0703 0 1.1211-0.84375 2.1875-2.0742 2.1875l-10.641 0.28125c-1.1758 0-2.1289-0.95312-2.1289-2.0703-0.054687-1.1797 0.84375-2.1875 2.0742-2.1875zm-14.223 99.902h-5.6562c-1.1758 0-2.1289-0.95312-2.1289-2.1289 0-1.1758 0.95312-2.1289 2.1289-2.1289h5.6562c1.1758 0 2.0703 1.0078 2.0703 2.1289 0 1.1758-0.95313 2.1289-2.0703 2.1289zm0-22.68h-5.6562c-1.1758 0-2.1289-0.95312-2.1289-2.0703 0-1.1758 0.95312-2.1289 2.1289-2.1289h5.6562c1.1758 0 2.0703 0.95312 2.0703 2.1289 0 1.1758-0.95313 2.0703-2.0703 2.0703zm28.781 22.68h-5.5977c-1.1758 0-2.1289-0.95312-2.1289-2.1289 0-1.1758 1.0078-2.1289 2.1289-2.1289h5.6562c1.1758 0 2.1289 1.0078 2.1289 2.1289-0.058594 1.1758-0.95312 2.1289-2.1875 2.1289zm0-22.68h-5.5977c-1.1758 0-2.1289-0.95312-2.1289-2.0703 0-1.1758 1.0078-2.1289 2.1289-2.1289h5.6562c1.1758 0 2.1289 0.95312 2.1289 2.1289-0.058594 1.1758-0.95312 2.0703-2.1875 2.0703zm36.906 22.68c-8.5664 0-15.566-6.9453-15.566-15.512 0-8.625 7-15.566 15.566-15.566s15.566 6.9453 15.566 15.566c0 8.5117-7 15.512-15.566 15.512zm18.871-49.895c0 1.1758-1.0078 2.1289-2.1289 2.1289h-91.336c-1.1758 0-2.1289-1.0078-2.1289-2.1289v-29.066c0-1.1758 0.95312-2.1289 2.1289-2.1289h91.336c1.1758 0 2.1289 0.95312 2.1289 2.1289z"/>
  <path d="m350 226.07c-52.414 0-95.09 42.672-95.09 95.031 0 52.363 42.676 95.09 95.09 95.09s95.09-42.672 95.09-95.086c0-52.418-42.676-95.035-95.09-95.035zm0 179.82c-46.762 0-84.785-37.969-84.785-84.785 0-46.703 38.023-84.727 84.785-84.727s84.785 38.023 84.785 84.73c0 46.816-38.023 84.781-84.785 84.781z"/>
  <path d="m482.66 296.69h48.945v42.504h-48.945z"/>
  <path d="m482.66 254.8h48.945v37.688h-48.945z"/>
  <path d="m450.86 281.29c0.89453 0.83984 0.95312 2.1289 0.16797 3.0234-0.39063 0.44922-1.0078 0.72656-1.625 0.72656-0.50391 0-1.0078-0.16797-1.3984-0.50391l-9.6328-8.5664c6.9453 13.551 10.922 28.953 10.922 45.137 0 16.297-3.9766 31.641-10.922 45.246l9.6328-8.5117c0.89453-0.78516 2.2383-0.72656 3.0234 0.16797 0.78516 0.89453 0.72656 2.2383-0.16797 3.0234l-6.5508 5.8242h34.105l-0.003906-91.391h-34.102z"/>
  <path d="m347.87 177.74h4.2578v-11.535c-0.058594-0.054687-0.33594-6.1016 4.3672-11.031 4.5352-4.7617 12.039-7.0547 22.398-7.1133h40.711c-9.9688 4.6484-16.855 14.672-16.855 26.32 0 16.016 12.992 29.062 29.062 29.062 2.2969 0 4.5352-0.33594 6.7188-0.83984 2.1289 0.50391 4.4258 0.83984 6.7188 0.83984 15.961 0 29.062-12.992 29.062-29.062 0-11.648-6.9453-21.672-16.855-26.32h54.879c1.1758 0 2.1289-0.95312 2.1289-2.1289 0-1.1758-0.95312-2.1289-2.1289-2.1289l-133.38 0.003906c-11.762 0-20.273 2.8008-25.539 8.5117-5.9883 6.3281-5.543 13.887-5.543 14.055zm122.19-3.4141c0 13.047-10.191 23.801-23.07 24.695 8.2891-5.0938 13.832-14.223 13.832-24.695s-5.6016-19.602-13.887-24.641c12.934 0.83984 23.125 11.594 23.125 24.641zm-13.496 0c0 11.367-7.6719 20.887-18.031 23.855-10.414-2.9688-18.086-12.488-18.086-23.855 0-11.312 7.6719-20.945 18.09-23.855 10.414 2.9102 18.027 12.543 18.027 23.855zm-40.32 0c0 10.473 5.543 19.602 13.777 24.695-12.824-0.89453-23.016-11.59-23.016-24.695s10.191-23.801 23.016-24.641c-8.2891 5.0977-13.777 14.223-13.777 24.641z"/>
 </g>
</svg>
