<?xml version="1.0" encoding="UTF-8"?>
<svg width="700pt" height="700pt" version="1.1" viewBox="0 0 700 700" xmlns="http://www.w3.org/2000/svg">
 <g fill-rule="evenodd">
  <path d="m108.96 350h482.09l10.957 109.57h-504z"/>
  <path d="m552.7 465.04h21.914v10.957h-21.914z"/>
  <path d="m125.39 465.04h21.914v10.957h-21.914z"/>
  <path d="m166.04 322.61v-30.133c0-15.066 12.324-27.391 27.391-27.391l4.7734 19.09c-2.75 1.8359-4.7305 4.918-5.3359 8.3477-0.50391 2.8516-0.066406 5.8359 1.3086 8.3477l-3.832 21.734h-24.309z"/>
  <path d="m204.8 287.95c2.9805 0.52734 4.8828 3.8477 4.2539 7.4258-0.42188 2.3984-1.875 4.2969-3.6836 5.1328l-3.8984 22.094h-5.5625l4.0625-23.047c-1.4141-1.4062-2.1328-3.6875-1.7109-6.082 0.63281-3.5742 3.5586-6.0469 6.5391-5.5234z"/>
  <path d="m168.79 328.08h60.262v16.438h-65.742z"/>
  <path d="m220.83 265.09c15.066 0 27.391 12.348 27.391 27.391v52.047h-13.695v-21.914h-27.484l0.48047-2.7383 0.9375-5.3047 1.9102-10.84c0.37109-0.32422 0.72656-0.67969 1.0625-1.0547l0.023437-0.03125 0.10938-0.125 0.011719-0.011719 0.023437-0.03125 0.035156-0.042968 0.011719-0.011719 0.023438-0.03125 0.035156-0.042969 0.011719-0.015625 0.023437-0.027344 0.035157-0.042969 0.011718-0.015624 0.023438-0.027344 0.03125-0.042969 0.015625-0.015625 0.019531-0.027344 0.035156-0.042968 0.011719-0.015626 0.019531-0.027343 0.03125-0.042969 0.015625-0.015625 0.019531-0.027344 0.03125-0.042969 0.015626-0.015624 0.019531-0.027344 0.03125-0.042969 0.011719-0.015625 0.019531-0.027344 0.03125-0.046875 0.015625-0.019531 0.019531-0.027344 0.03125-0.046875 0.015625-0.015625 0.015625-0.027344 0.03125-0.046874 0.015625-0.019532 0.015625-0.027344 0.03125-0.042968 0.015625-0.019532 0.019531-0.023437 0.03125-0.046875 0.015625-0.019531 0.20312-0.30469c0.90234-1.4297 1.5195-3.0469 1.8164-4.7305 0.30859-1.7461 0.25391-3.5234-0.13672-5.2031l6.5117-26.039z"/>
  <path d="m210.55 271.93 3.4219-6.8477h-13.695l3.4258 6.8477-0.75391 10.516c0.90234-0.089843 1.8398-0.058593 2.8008 0.10938 2.3672 0.41797 4.3164 1.5781 5.7852 3.1797l-0.98828-13.809z"/>
  <path d="m207.13 196.6c15.129 0 27.391 13.797 27.391 30.812 0 17.02-12.262 30.816-27.391 30.816-15.129 0-27.391-13.797-27.391-30.816 0-17.02 12.262-30.812 27.391-30.812z"/>
  <path d="m533.09 322.61v-30.133c0-15.066-12.324-27.391-27.391-27.391l-4.7734 19.09c2.75 1.8359 4.7266 4.918 5.3359 8.3477 0.50391 2.8516 0.070312 5.8359-1.3086 8.3477l3.832 21.734h24.309z"/>
  <path d="m494.33 287.95c-2.9805 0.52734-4.8828 3.8477-4.2539 7.4258 0.42188 2.3984 1.875 4.2969 3.6836 5.1328l3.8984 22.094h5.5625l-4.0625-23.047c1.4141-1.4062 2.1328-3.6875 1.7109-6.082-0.63281-3.5742-3.5586-6.0469-6.5352-5.5234z"/>
  <path d="m530.35 328.08h-60.262v16.438h65.738z"/>
  <path d="m478.3 265.09c-15.066 0-27.391 12.348-27.391 27.391v52.047h13.695v-21.914h27.48l-0.48047-2.7383-0.9375-5.3047-1.9102-10.84c-0.4375-0.38281-0.84766-0.80469-1.2305-1.2539l-0.035156-0.042968-0.011719-0.011719-0.023437-0.03125-0.035157-0.042969-0.011719-0.015625-0.023437-0.027344-0.066406-0.085937-0.035157-0.042969-0.015624-0.015625-0.089844-0.11328-0.03125-0.042969-0.015625-0.015625-0.019531-0.027344-0.03125-0.042969-0.066407-0.089843-0.015625-0.015625-0.019531-0.027344-0.12891-0.17969-0.03125-0.046874-0.015625-0.019532-0.046875-0.070312-0.015625-0.019532-0.015625-0.023437-0.0625-0.089844-0.0625-0.09375-0.12109-0.1875c-0.89844-1.4297-1.5195-3.0469-1.8164-4.7305-0.30859-1.7461-0.25-3.5234 0.13672-5.2031l-6.5117-26.039z"/>
  <path d="m488.58 271.93-3.4258-6.8477h13.695l-3.4258 6.8477 0.75391 10.516c-0.90234-0.089843-1.8398-0.058593-2.7969 0.10938-2.3672 0.41797-4.3203 1.5781-5.7891 3.1797l0.98828-13.809z"/>
  <path d="m492 196.6c-15.129 0-27.391 13.797-27.391 30.812 0 17.02 12.262 30.816 27.391 30.816s27.391-13.797 27.391-30.816c0-17.02-12.262-30.812-27.391-30.812z"/>
  <path d="m418.84 263.41 37.191-37.188c5.1133-5.1133 5.1133-13.48 0-18.59-5.1172-5.1133-13.484-5.1133-18.594-0.003906l-27.891 27.895-27.887-27.891-0.003906-0.003906c-4.7656-4.7656-11.34-7.7266-18.566-7.7266l-8.0352 32.137-1.8281-25.566 3.2852-6.5742h-13.148l3.2852 6.5742-1.8242 25.566-8.0352-32.137c-7.3086 0-13.941 3.0195-18.719 7.8711l-27.605 27.605-27.891-27.895c-5.1133-5.1133-13.48-5.1133-18.594 0.003906-5.1133 5.1133-5.1133 13.48 0 18.59l37.191 37.188 0.24219 0.23828 0.24609 0.22656 0.25 0.21875 0.25781 0.21484 0.26172 0.20312 0.26172 0.19922 0.26562 0.1875 0.26953 0.18359 0.27344 0.17578 0.27734 0.16797 0.003906 0.003906 0.27734 0.16016 0.003906 0.003906 0.28125 0.15234 0.28516 0.14453 0.28906 0.13672h0.003907l0.28906 0.12891h0.003907l0.29297 0.12109h0.003906l0.29297 0.11719h0.003907l0.29687 0.10938h0.003907l0.30078 0.10156h0.003906l0.30078 0.09375h0.003906l0.30469 0.085938h0.003907l0.30469 0.078125 0.30859 0.070312h0.003906l0.30859 0.0625h0.003906l0.30859 0.054688h0.003906l0.30859 0.046875h0.003906l0.3125 0.039062h0.003906l0.3125 0.035157h0.003907l0.30859 0.023437h0.003907l0.3125 0.015625h0.003906l0.3125 0.011719h0.003906l0.30859 0.003906h0.003906l0.3125-0.003906h0.003906l0.3125-0.011719h0.003906l0.3125-0.015625h0.003907l0.30859-0.023437h0.003907l0.30859-0.035157h0.003907l0.3125-0.039062h0.003906l0.30859-0.046875h0.003906l0.30859-0.054688h0.003906l0.30859-0.0625h0.003906l0.30469-0.070312h0.003907l0.30469-0.078125h0.003906l0.30469-0.085938h0.003906l0.30078-0.09375h0.003906l0.29688-0.10156h0.003906l0.29688-0.10938h0.003906l0.29297-0.11719h0.003906l0.28906-0.12109h0.003906l0.28906-0.12891h0.003907l0.28516-0.13672h0.003906l0.56641-0.29688 0.003906-0.003906 0.27734-0.16016 0.003906-0.003906 0.27344-0.16797h0.003907c0.18359-0.11328 0.35937-0.23438 0.53906-0.35938h0.003906l0.26172-0.1875c0.53125-0.39062 1.043-0.82422 1.5234-1.3047l10.73-10.73v91.988h0.64453l3.6523-21.922h26.555v-20.484c-1.793-2.2305-2.7383-5.0977-2.7383-7.9961 0-6.2031 4.4688-12.062 10.965-12.062 6.4922 0 10.965 5.8555 10.965 12.062 0 2.8984-0.94531 5.7656-2.7383 8v20.48h26.551l3.6562 21.922h1.3789v-91.98l10.863 10.863c0.48047 0.48047 0.99219 0.91406 1.5234 1.3047l0.26172 0.1875h0.003906c0.17578 0.125 0.35938 0.24219 0.54297 0.35547l0.003906 0.003906 0.27344 0.16797h0.003907l0.27734 0.16016h0.003907l0.56641 0.29688h0.003906l0.28516 0.13672h0.003906l0.28906 0.12891 0.003906 0.003906 0.28906 0.12109h0.003906l0.29297 0.11719h0.003906l0.29688 0.10938h0.003907l0.30078 0.10156h0.003906l0.30078 0.09375h0.003906l0.30469 0.085938h0.003906l0.30469 0.078124h0.003906l0.30469 0.070313h0.003906l0.30859 0.0625h0.003906l0.30859 0.054687h0.003906l0.30859 0.050782h0.003906l0.3125 0.039062h0.003906l0.3125 0.03125 0.003906 0.003906 0.30859 0.023438 0.003906 0.003906 0.3125 0.015625h0.003906l0.3125 0.011719h0.003907l0.3125 0.003906h0.003906l0.3125-0.003906h0.003906l0.3125-0.011719h0.003907l0.3125-0.015625 0.003906-0.003906 0.3125-0.023438v-0.003906l0.3125-0.03125h0.003906l0.3125-0.039062h0.003906l0.30859-0.050782h0.003906l0.30859-0.054687h0.003906l0.30859-0.0625h0.003906l0.30859-0.070313 0.30469-0.078124h0.003906l0.30469-0.085938h0.003907l0.30078-0.09375 0.30078-0.10156h0.003906l0.29688-0.10938h0.003907l0.29297-0.11719h0.003906l0.29297-0.12109 0.003907-0.003906 0.28906-0.12891h0.003906l0.28906-0.13672 0.28516-0.14453 0.28516-0.15234 0.27734-0.16016h0.003906l0.27734-0.16797v-0.003906l0.27344-0.17578 0.26953-0.18359 0.26562-0.1875 0.26172-0.19922 0.26172-0.20312 0.25781-0.21484 0.25-0.22266 0.24609-0.22656 0.24219-0.23437z"/>
  <path d="m349.93 134.15c14.523 0 26.297 13.242 26.297 29.582 0 16.336-11.773 29.582-26.297 29.582-14.523 0-26.297-13.246-26.297-29.582 0-16.34 11.773-29.582 26.297-29.582z"/>
  <path d="m319.44 328.08h60.258l2.7422 16.438h-65.742z"/>
  <path d="m349.57 287.54c3.0273 0 5.4766 2.9414 5.4766 6.5742 0 2.4336-1.1016 4.5586-2.7383 5.6953v22.793h-5.4766v-22.797c-1.6367-1.1367-2.7383-3.2578-2.7383-5.6914 0-3.6328 2.4531-6.5742 5.4766-6.5742z"/>
 </g>
</svg>
